<svg width="120" height="120" viewBox="0 0 120 120" fill="none" xmlns="http://www.w3.org/2000/svg">
  <defs>
    <linearGradient id="logoGrad" x1="0" y1="0" x2="120" y2="120" gradientUnits="userSpaceOnUse">
      <stop offset="0%" stop-color="#8b5cf6" />
      <stop offset="100%" stop-color="#2563eb" />
    </linearGradient>
    <radialGradient id="shine" cx="0.5" cy="0.3" r="0.75" gradientUnits="objectBoundingBox">
      <stop offset="0%" stop-color="rgba(255,255,255,0.9)" />
      <stop offset="100%" stop-color="rgba(255,255,255,0)" />
    </radialGradient>
  </defs>
  <rect width="120" height="120" rx="32" fill="url(#logoGrad)" />
  <circle cx="60" cy="60" r="54" fill="rgba(255,255,255,0.08)" />
  <path d="M39 38H54C58.4183 38 62 41.5817 62 46V74C62 78.4183 58.4183 82 54 82H39C34.5817 82 31 78.4183 31 74V46C31 41.5817 34.5817 38 39 38Z" fill="white" />
  <path d="M68 38H83C87.4183 38 91 41.5817 91 46V74C91 78.4183 87.4183 82 83 82H68C63.5817 82 60 78.4183 60 74V46C60 41.5817 63.5817 38 68 38Z" fill="white" />
  <path d="M45 54H65V66H45V54Z" fill="#2563eb" />
  <path d="M67 54H87V66H67V54Z" fill="#8b5cf6" />
  <rect x="32" y="32" width="56" height="56" rx="16" fill="url(#shine)" />
</svg>
